<svg width="23" height="23" viewBox="0 0 23 23" fill="none" xmlns="http://www.w3.org/2000/svg">
<mask id="mask0_58_2588" style="mask-type:alpha" maskUnits="userSpaceOnUse" x="0" y="0" width="23" height="23">
<rect width="23" height="23" fill="#D9D9D9"/>
</mask>
<g mask="url(#mask0_58_2588)">
<path d="M18.1125 19.4542L12.7458 14.0875C12.2667 14.4708 11.7156 14.7743 11.0927 14.9979C10.4698 15.2215 9.80694 15.3333 9.10417 15.3333C7.36319 15.3333 5.88992 14.7305 4.68433 13.525C3.47811 12.3187 2.875 10.8451 2.875 9.10417C2.875 7.36319 3.47811 5.8896 4.68433 4.68338C5.88992 3.47779 7.36319 2.875 9.10417 2.875C10.8451 2.875 12.3187 3.47779 13.525 4.68338C14.7305 5.8896 15.3333 7.36319 15.3333 9.10417C15.3333 9.80694 15.2215 10.4698 14.9979 11.0927C14.7743 11.7156 14.4708 12.2667 14.0875 12.7458L19.4781 18.1365C19.6538 18.3122 19.7417 18.5278 19.7417 18.7833C19.7417 19.0389 19.6458 19.2625 19.4542 19.4542C19.2785 19.6299 19.0549 19.7177 18.7833 19.7177C18.5118 19.7177 18.2882 19.6299 18.1125 19.4542ZM9.10417 13.4167C10.3021 13.4167 11.3205 12.9976 12.1593 12.1593C12.9976 11.3205 13.4167 10.3021 13.4167 9.10417C13.4167 7.90625 12.9976 6.88786 12.1593 6.049C11.3205 5.21078 10.3021 4.79167 9.10417 4.79167C7.90625 4.79167 6.88786 5.21078 6.049 6.049C5.21078 6.88786 4.79167 7.90625 4.79167 9.10417C4.79167 10.3021 5.21078 11.3205 6.049 12.1593C6.88786 12.9976 7.90625 13.4167 9.10417 13.4167Z" fill="#8A8A8A"/>
</g>
</svg>
