<svg width="19" height="19" viewBox="0 0 19 19" fill="none" xmlns="http://www.w3.org/2000/svg">
<path fill-rule="evenodd" clip-rule="evenodd" d="M8.38686 0.336827C8.83596 -0.112276 9.5641 -0.112276 10.0132 0.336827L18.0632 8.38683C18.3921 8.71572 18.4905 9.21036 18.3125 9.64009C18.1345 10.0698 17.7152 10.35 17.25 10.35H16.1V17.25C16.1 17.8851 15.5852 18.4 14.95 18.4H12.65C12.0149 18.4 11.5 17.8851 11.5 17.25V13.8C11.5 13.1649 10.9852 12.65 10.35 12.65H8.05003C7.41491 12.65 6.90003 13.1649 6.90003 13.8V17.25C6.90003 17.8851 6.38516 18.4 5.75003 18.4H3.45003C2.81491 18.4 2.30003 17.8851 2.30003 17.25V10.35H1.15003C0.684902 10.35 0.26557 10.0698 0.0875721 9.64009C-0.090426 9.21036 0.00796312 8.71572 0.336861 8.38683L8.38686 0.336827Z" fill="#4D4D4D"/>
</svg>
